<svg width="96" height="96" viewBox="0 0 96 96" fill="none" xmlns="http://www.w3.org/2000/svg">
<path d="M48.7354 29.4268C48.8313 32.9022 49.8991 36.1326 51.6768 38.8564C54.8589 38.1872 57.8971 36.6586 60.4219 34.2695L81.8047 14.0361L61.5713 35.4189C59.1819 37.944 57.6516 40.9825 56.9824 44.165C59.7075 45.9451 62.9408 47.0143 66.4189 47.1104L95.8457 47.9229L66.418 48.7354C62.9402 48.8315 59.7073 49.8998 56.9824 51.6797C57.6515 54.8626 59.1817 57.9015 61.5713 60.4268L81.8047 81.8096L60.4219 61.5762C57.8971 59.1871 54.859 57.6575 51.6768 56.9883C49.8989 59.7122 48.8313 62.9433 48.7354 66.4189L47.9229 95.8457L47.1104 66.418C47.0143 62.9416 45.9456 59.7105 44.167 56.9863C40.9821 57.6548 37.9408 59.1852 35.4141 61.5762L14.0322 81.8096L34.2656 60.4268C36.6562 57.9003 38.185 54.8593 38.8535 51.6748C36.1303 49.8983 32.901 48.8313 29.4268 48.7354L0 47.9229L29.4268 47.1104C32.9011 47.0144 36.1303 45.9465 38.8535 44.1699C38.1849 40.9858 36.656 37.9452 34.2656 35.4189L14.0322 14.0361L35.4141 34.2695C37.9408 36.6605 40.9822 38.1899 44.167 38.8584C45.9455 36.1342 47.0144 32.9031 47.1104 29.4268L47.9229 0L48.7354 29.4268Z" fill="#FAFAFA"/>
</svg>
